<svg width="55" height="45" viewBox="0 0 55 45" fill="none" xmlns="http://www.w3.org/2000/svg">
<path d="M17.2964 44.6904C38.0512 44.6904 49.4032 27.4952 49.4032 12.5836C49.4032 12.0952 49.4032 11.609 49.3702 11.125C51.5786 9.52757 53.485 7.5497 55 5.28396C52.9407 6.19697 50.7559 6.79544 48.5188 7.05936C50.8746 5.64927 52.6377 3.43116 53.4798 0.817961C51.2648 2.13248 48.8415 3.05881 46.3144 3.55696C44.613 1.74787 42.3629 0.549931 39.9121 0.148529C37.4613 -0.252872 34.9466 0.16464 32.757 1.33646C30.5674 2.50827 28.8251 4.36907 27.7996 6.63088C26.7741 8.8927 26.5227 11.4294 27.0842 13.8486C22.5979 13.6235 18.209 12.4576 14.2025 10.4265C10.196 8.39535 6.66133 5.54443 3.828 2.05876C2.385 4.54292 1.94304 7.48366 2.5921 10.2822C3.24117 13.0808 4.93245 15.5268 7.3216 17.1222C5.52574 17.0695 3.76898 16.5851 2.2 15.7098V15.8528C2.20071 18.458 3.10258 20.9829 4.75262 22.999C6.40267 25.0152 8.69931 26.3985 11.253 26.9144C9.59173 27.3675 7.84867 27.4337 6.1578 27.108C6.87916 29.35 8.28307 31.3105 10.1733 32.7155C12.0634 34.1206 14.3454 34.8998 16.7002 34.9444C14.3606 36.7834 11.6813 38.143 8.81575 38.9456C5.95016 39.7482 2.95445 39.9779 0 39.6216C5.16045 42.9331 11.1648 44.6896 17.2964 44.6816" fill="#1DA1F2"/>
</svg>
